{"title":"The.Wiggles.Wiggle.Bay[2002]-Bearmeister.avi","uid":4023576,"size":581018560,"categoryP":"video","categoryS":"movies","magnet":"?xt=urn:btih:09d89d350dbc242dde2da8ec6ef22ebfc781c640&amp;dn=The.Wiggles.Wiggle.Bay%5B2002%5D-Bearmeister.avi&amp;tr=udp%3A%2F%2Ftracker.openbittorrent.com%3A80&amp;tr=udp%3A%2F%2Fopen.demonii.com%3A1337&amp;tr=udp%3A%2F%2Ftracker.coppersurfer.tk%3A6969&amp;tr=udp%3A%2F%2Fexodus.desync.com%3A6969","seeders":0,"leechers":0,"uploader":"bearmeister","files":1,"time":1202786337,"description":"\nAll Bearmeister torrents located here &lt;a href=&quot;\nhttp://thepiratebay.se/user/bearmeister/&quot; rel=&quot;nofollow&quot; target=&quot;_NEW&quot;&gt;\nhttp://thepiratebay.se/user/bearmeister/&lt;/a&gt;\n\n  Duration: 00:41:53.2, bitrate: 1849 kb/s\n  Stream #0.0: Video: FMP4, 720x480, 29.97 fps\n  Stream #0.1: Audio: mp3, 44100 Hz, stereo, 64 kb/s\n\nThe Wiggles and their friends, Dorothy the Dinosaur, Henry the Octopus and Captain Feathersword have sailed to Wiggle bay and brought to you a collection of wonderful new songs while they dance, frolic, swim and roll down the sandhills of Wiggle Bay.\n","torrent":{"xt":"urn:btih:09d89d350dbc242dde2da8ec6ef22ebfc781c640","amp;dn":"The.Wiggles.Wiggle.Bay%5B2002%5D-Bearmeister.avi","amp;tr":["udp%3A%2F%2Ftracker.openbittorrent.com%3A80","udp%3A%2F%2Fopen.demonii.com%3A1337","udp%3A%2F%2Ftracker.coppersurfer.tk%3A6969","udp%3A%2F%2Fexodus.desync.com%3A6969"],"infoHash":"09d89d350dbc242dde2da8ec6ef22ebfc781c640","infoHashBuffer":{"type":"Buffer","data":[9,216,157,53,13,188,36,45,222,45,168,236,110,242,46,191,199,129,198,64]},"announce":[],"urlList":[]}}